<svg xmlns="http://www.w3.org/2000/svg" viewBox="0 0 300.17 124.54"><path d="M9.07 124.54H0V29.16c7.62-2.36 15.11-3.55 22.46-3.55 5.34 0 10.2.83 14.58 2.5 4.38 1.66 8.12 3.99 11.23 6.96 3.11 2.98 5.49 6.53 7.16 10.64 1.66 4.12 2.5 8.58 2.5 13.4 0 5.87-1.01 10.9-3.02 15.11-2.02 4.2-4.66 7.66-7.95 10.38-3.28 2.72-7.03 4.71-11.23 5.98s-8.5 1.9-12.87 1.9c-2.36 0-4.69-.18-6.96-.53-2.28-.35-4.55-.83-6.83-1.44v34.02Zm38.49-65.56c0-7.62-2.13-13.77-6.37-18.46-4.25-4.68-10.23-7.03-17.93-7.03-2.45 0-4.86.15-7.22.46-2.37.31-4.69.85-6.96 1.64v46.5c2.1.7 4.27 1.3 6.5 1.77 2.23.48 4.4.72 6.5.72 7.79 0 13.99-2.21 18.59-6.63s6.9-10.75 6.9-18.98ZM76.32 91.96V0h9.2v91.96zM160.66 82.37c-3.07 3.33-6.61 5.85-10.64 7.55-4.03 1.71-8.89 2.56-14.58 2.56-5.25 0-9.85-.9-13.79-2.69s-7.22-4.22-9.85-7.29c-2.63-3.06-4.6-6.57-5.91-10.51s-1.97-8.1-1.97-12.48c0-5.78.79-10.79 2.36-15.04 1.58-4.25 3.72-7.77 6.44-10.58 2.72-2.8 5.87-4.88 9.46-6.24q5.385-2.04 11.43-2.04c9.64 0 16.9 2.96 21.81 8.87 4.9 5.91 7.27 14.52 7.09 25.81h-49.26c.26 7.45 2.41 13.36 6.44 17.73 4.03 4.38 9.5 6.57 16.42 6.57 3.85 0 7.36-.63 10.51-1.9s6-3.3 8.54-6.11l5.52 5.78Zm-7.36-29.82c0-2.72-.42-5.26-1.25-7.62-.84-2.36-2.02-4.38-3.55-6.04s-3.53-3-5.98-4.01-5.3-1.51-8.54-1.51-6.2.5-8.6 1.51c-2.41 1.01-4.31 2.3-5.71 3.87-1.4 1.58-2.69 3.57-3.88 5.98-1.18 2.41-1.95 5.02-2.3 7.82zM222.68 41.77c-2.29-2.89-4.77-5.01-7.43-6.37s-5.83-2.04-9.49-2.04q-7.02 0-9.84 2.49c-1.88 1.67-2.82 3.77-2.82 6.31 0 1.75.43 3.24 1.31 4.47.87 1.23 2.02 2.28 3.44 3.15 1.42.88 3.08 1.64 4.96 2.3s3.83 1.3 5.85 1.91c2.47.79 4.95 1.64 7.43 2.56s4.75 2.12 6.82 3.61c2.06 1.49 3.74 3.31 5.02 5.45 1.28 2.15 1.92 4.84 1.92 8.08q0 4.47-1.92 8.01a18.1 18.1 0 0 1-5.23 5.98c-2.2 1.63-4.8 2.85-7.78 3.68s-6.17 1.25-9.57 1.25c-5.23 0-9.86-.86-13.9-2.56-4.04-1.71-7.84-4.53-11.42-8.47l7.15-6.31c4.77 6.13 10.96 9.2 18.58 9.2q7.425 0 11.01-2.76c2.39-1.84 3.58-4.07 3.58-6.7 0-2.01-.44-3.7-1.31-5.06-.88-1.36-2.06-2.52-3.58-3.48-1.51-.96-3.25-1.77-5.23-2.43-1.97-.66-4.05-1.29-6.26-1.9a107 107 0 0 1-7.36-2.37c-2.43-.87-4.61-1.99-6.54-3.35s-3.51-3.09-4.75-5.19q-1.86-3.15-1.86-8.01c0-5.78 2.11-10.25 6.33-13.4s9.68-4.73 16.38-4.73c4.77 0 9.01.79 12.73 2.36 3.72 1.58 7.27 4.33 10.66 8.28l-6.74 6.17zM247.1 91.96V.13h9.19v91.83zm9.19-33.89 31.53-31.79h12.35l-32.32 31.53 32.18 34.15h-12.74z"/><path fill="#53bce6" d="M108.32 124.54H52.98v-8.65h55.33v8.65Z"/></svg>